<svg width="20" height="20" viewBox="0 0 20 20" fill="none" xmlns="http://www.w3.org/2000/svg">
<path fill-rule="evenodd" clip-rule="evenodd" d="M18.9748 18.047L15.0698 14.1437C14.8164 13.8904 14.4031 13.8904 14.1506 14.147C13.8973 14.4037 13.8989 14.817 14.1539 15.072L18.0589 18.9754C18.1848 19.102 18.3506 19.1654 18.5164 19.1654C18.6839 19.1654 18.8514 19.1004 18.9781 18.972C19.2314 18.7154 19.2298 18.302 18.9748 18.047ZM0.833984 8.43037C0.833984 4.2412 4.24232 0.832031 8.43148 0.832031C12.6215 0.832031 16.0315 4.2412 16.0315 8.43037C16.0315 8.9262 15.9832 9.42203 15.8882 9.9037C15.819 10.2587 15.4715 10.4879 15.1248 10.4179C14.7723 10.3479 14.5432 10.0045 14.6132 9.65036C14.6915 9.2512 14.7307 8.8412 14.7307 8.43037C14.7307 4.96203 11.9048 2.13953 8.43148 2.13953C4.95898 2.13953 2.13398 4.96203 2.13398 8.43037C2.13398 11.9004 4.95898 14.7229 8.43148 14.7229C10.1882 14.7229 11.819 14.0187 13.0215 12.7404C13.2682 12.477 13.6807 12.467 13.9407 12.7154C14.2015 12.9637 14.2123 13.377 13.9657 13.6395C12.5357 15.1595 10.519 16.0304 8.43148 16.0304C4.24232 16.0304 0.833984 12.6212 0.833984 8.43037Z" fill="black" fill-opacity="0.58"/>
</svg>
