<svg width="32" height="32" viewBox="0 0 32 32" fill="none" xmlns="http://www.w3.org/2000/svg">
<path d="M28.8451 5.37445C27.7584 5.88779 25.9091 6.85045 24.9798 7.03445C24.9438 7.04379 24.9144 7.05579 24.8798 7.06512C23.7958 5.99579 22.3104 5.33312 20.6664 5.33312C17.3531 5.33312 14.6664 8.01979 14.6664 11.3331C14.6664 11.5078 14.6518 11.8291 14.6664 11.9998C10.3758 11.9998 7.24245 9.76112 4.89711 6.88379C4.58378 6.49712 4.25045 6.69845 4.18111 6.97312C4.02511 7.59445 3.97178 8.63312 3.97178 9.37445C3.97178 11.2425 5.43178 13.0771 7.70511 14.2145C7.28645 14.3225 6.82511 14.3998 6.34511 14.3998C5.77978 14.3998 5.12911 14.2518 4.55978 13.9531C4.34911 13.8425 3.89445 13.8731 4.02911 14.4118C4.56911 16.5705 7.03311 18.0865 9.23445 18.5278C8.73445 18.8225 7.66778 18.7625 7.17711 18.7625C6.99578 18.7625 6.36511 18.7198 5.95711 18.6691C5.58511 18.6238 5.01311 18.7198 5.49178 19.4451C6.51978 21.0011 8.84511 21.9785 10.8464 22.0158C9.00378 23.4611 5.99045 23.9891 3.10378 23.9891C2.51978 23.9758 2.54912 24.6411 3.01978 24.8878C5.14911 26.0051 8.63711 26.6665 11.1291 26.6665C21.0358 26.6665 26.6664 19.1158 26.6664 11.9985C26.6664 11.8838 26.6638 11.6438 26.6598 11.4025C26.6598 11.3785 26.6664 11.3558 26.6664 11.3318C26.6664 11.2958 26.6558 11.2611 26.6558 11.2251C26.6518 11.0438 26.6478 10.8745 26.6438 10.7865C27.4291 10.2198 28.6318 9.23579 29.2398 8.48245C29.4464 8.22645 29.2798 7.91579 28.9984 8.01312C28.2744 8.26512 27.0224 8.75312 26.2384 8.84645C27.8078 7.80779 28.5838 6.90379 29.2504 5.89979C29.4784 5.55712 29.1931 5.20912 28.8451 5.37445Z" fill="white"/>
</svg>
